# xmcd
# 
# Track frame offsets:
#     150
#     13167
#     31078
#     52509
#     70244
#     85993
#     104098
#     129891
#     146061
#     158901
#     177482
#     194609
#     209323
#     219605
#     240884
# 
# Disc length: 3454
# 
# Revision: 3
# Processed by: cddbd v1.5.2PL0 Copyright (c) Steve Scherf et al.
# Submitted via: fre:ac v1.0.27
# 
DISCID=d00d7c0f
DTITLE=Django - Gipsy Jazz School: Django's Legacy [CD2 1964-2002)
DYEAR=2002
DGENRE=Jazz
TTITLE0=Babik Reinhardt - Nuits De Saint Germain Des Prés
TTITLE1=Fapy Lafertin - Wonderful You
TTITLE2=New Quintet Du Hot Club de France - New For Me
TTITLE3=Rene Mailhes - Song For Mac Kak
TTITLE4=The Rosenberg Trio - Bossa Dorado
TTITLE5=Tchavolo Schmitt - Alors? ... Voila!
TTITLE6=Bireli Lagrene - Bireli Swing 1979
TTITLE7=Christian Escoude - La Rond
TTITLE8=Romane - Gipsy Rag
TTITLE9=Patrick Saussois and Sinti - The Song Is You
TTITLE10=Angelo Debarre - Cherokee
TTITLE11=Raphael Fays - Stranger In Paradise
TTITLE12=Francis Alfred Moerman - Le Retour Du Forain
TTITLE13=Frank Vignola - I Surrender Dear
TTITLE14=Moreno - Tchan-Tchou
EXTD=YEAR: 2002
EXTT0=
EXTT1=
EXTT2=
EXTT3=
EXTT4=
EXTT5=
EXTT6=
EXTT7=
EXTT8=
EXTT9=
EXTT10=
EXTT11=
EXTT12=
EXTT13=
EXTT14=
PLAYORDER=
